<svg xmlns="http://www.w3.org/2000/svg" viewBox="0 0 220 250" width="220" height="250"><line x1="110" y1="40" x2="110" y2="26" stroke="#1C2746" stroke-width="6" stroke-linecap="round"></line><circle cx="110" cy="18" r="8" fill="#FFC53D" stroke="#1C2746" stroke-width="4"></circle><path d="M94 214 L90 236" fill="none" stroke="#1C2746" stroke-width="30" stroke-linecap="round"></path><path d="M94 214 L90 236" fill="none" stroke="#fff" stroke-width="16" stroke-linecap="round"></path><path d="M126 214 L130 236" fill="none" stroke="#1C2746" stroke-width="30" stroke-linecap="round"></path><path d="M126 214 L130 236" fill="none" stroke="#fff" stroke-width="16" stroke-linecap="round"></path><ellipse cx="88" cy="240" rx="17" ry="11" fill="#F0623E" stroke="#1C2746" stroke-width="7"></ellipse><ellipse cx="132" cy="240" rx="17" ry="11" fill="#F0623E" stroke="#1C2746" stroke-width="7"></ellipse><path d="M74 162 L50 210" fill="none" stroke="#1C2746" stroke-width="30" stroke-linecap="round"></path><path d="M74 162 L50 210" fill="none" stroke="#fff" stroke-width="16" stroke-linecap="round"></path><path d="M146 162 L132 126" fill="none" stroke="#1C2746" stroke-width="30" stroke-linecap="round"></path><path d="M146 162 L132 126" fill="none" stroke="#fff" stroke-width="16" stroke-linecap="round"></path><rect x="64" y="138" width="92" height="86" rx="36" fill="#fff" stroke="#1C2746" stroke-width="8"></rect><ellipse cx="110" cy="180" rx="26" ry="9" transform="rotate(-20 110 180)" fill="none" stroke="#1C2746" stroke-width="4.5"></ellipse><circle cx="110" cy="180" r="15" fill="#FFC53D" stroke="#1C2746" stroke-width="5"></circle><circle cx="48" cy="216" r="14" fill="#fff" stroke="#1C2746" stroke-width="7"></circle><circle cx="130" cy="122" r="14" fill="#fff" stroke="#1C2746" stroke-width="7"></circle><circle cx="110" cy="92" r="56" fill="#fff" stroke="#1C2746" stroke-width="8"></circle><path d="M80 64 Q92 52 108 52" fill="none" stroke="#FFC53D" stroke-width="7" stroke-linecap="round" opacity="0.9"></path><rect x="68" y="74" width="84" height="58" rx="29" fill="#BEE5F8" stroke="#1C2746" stroke-width="7"></rect><circle cx="86" cy="112" r="6" fill="#FBC4B5"></circle><circle cx="134" cy="112" r="6" fill="#FBC4B5"></circle><circle cx="98" cy="97" r="8" fill="#1C2746"></circle><circle cx="126" cy="97" r="8" fill="#1C2746"></circle><circle cx="100" cy="94" r="2.6" fill="#fff"></circle><circle cx="128" cy="94" r="2.6" fill="#fff"></circle><path d="M86 84 Q96 80 104 84" fill="none" stroke="#1C2746" stroke-width="4.5" stroke-linecap="round"></path><path d="M104 116 Q112 120 120 115" fill="none" stroke="#1C2746" stroke-width="5.5" stroke-linecap="round"></path><path d="M186.0 33.0 L183.1 40.0 L175.5 40.6 L181.3 45.5 L179.5 52.9 L186.0 49.0 L192.5 52.9 L190.7 45.5 L196.5 40.6 L188.9 40.0 Z" fill="#FFC53D" stroke="#1C2746" stroke-width="3.5" stroke-linejoin="round"></path></svg>